<?xml version="1.0" encoding="UTF-8" standalone="no"?>
<svg
   width="256"
   height="256"
   version="1.1"
   viewBox="0 0 256 256"
   id="svg5"
   sodipodi:docname="mute.svg"
   inkscape:version="1.4.2 (ebf0e940d0, 2025-05-08)"
   xmlns:inkscape="http://www.inkscape.org/namespaces/inkscape"
   xmlns:sodipodi="http://sodipodi.sourceforge.net/DTD/sodipodi-0.dtd"
   xmlns="http://www.w3.org/2000/svg"
   xmlns:svg="http://www.w3.org/2000/svg">
  <sodipodi:namedview
     id="namedview5"
     pagecolor="#ffffff"
     bordercolor="#666666"
     borderopacity="1.0"
     inkscape:showpageshadow="2"
     inkscape:pageopacity="0.0"
     inkscape:pagecheckerboard="0"
     inkscape:deskcolor="#d1d1d1"
     inkscape:zoom="2.972561"
     inkscape:cx="128.17231"
     inkscape:cy="127.8359"
     inkscape:window-width="1920"
     inkscape:window-height="1018"
     inkscape:window-x="0"
     inkscape:window-y="31"
     inkscape:window-maximized="1"
     inkscape:current-layer="svg5" />
  <defs
     id="defs1">
    <style
       id="style1">.cls-1{fill:#231f20;}</style>
  </defs>
  <g
     transform="matrix(1.0481 0 0 1.0481 6.3968 19.914)"
     fill="#1a1a1a"
     id="g4"
     style="fill:#e6e6e6">
    <path
       class="cls-1"
       d="m98.982 171.7-63.16-41.698h-25.053v-60h25.053l63.16-40.759 10.884 3.69v135.08zm-78.626-51.698h17.989l60.425 39.31v-118.66l-60.425 39.35h-17.989z"
       stroke-width="1.1403"
       id="path1"
       style="fill:#e6e6e6" />
    <path
       class="cls-1"
       d="m149.89 121.18c12.119-12.145 12.119-31.808 0-43.953l9.19-11.098c18.239 18.278 18.239 47.871 0 66.149z"
       stroke-width="1.5698"
       id="path2"
       style="fill:#e6e6e6" />
    <path
       class="cls-1"
       d="m168.53 147.1c26.013-26.004 26.013-68.175 0-94.179l10.512-10.512c31.818 31.81 31.818 83.393 0 115.2z"
       stroke-width="1.4869"
       id="path3"
       style="fill:#e6e6e6" />
    <path
       class="cls-1"
       d="m188.81 167.98c37.529-37.538 37.529-98.389 0-135.93l10.311-10.311c43.231 43.23 43.231 113.32 0 156.55z"
       stroke-width="1.4584"
       id="path4"
       style="fill:#e6e6e6" />
  </g>
  <path
     d="m17.593 35.682 92.372 92.372-92.387 92.248 18.089 18.089 92.298-92.344 92.352 92.359 18.089-18.089-92.335-92.326 92.321-92.324-18.089-18.089-92.32 92.338-92.301-92.323-18.089 18.089"
     fill="#f00"
     stroke="#000"
     stroke-width="1px"
     id="path5" />
</svg>
