<?xml version="1.0" encoding="UTF-8" standalone="no"?>
<!-- Uploaded to: SVG Repo, www.svgrepo.com, Generator: SVG Repo Mixer Tools -->

<svg
   width="800px"
   height="800px"
   viewBox="0 0 24 24"
   version="1.1"
   id="svg2"
   sodipodi:docname="screenshot.svg"
   inkscape:version="1.4.2 (ebf0e940d0, 2025-05-08)"
   xmlns:inkscape="http://www.inkscape.org/namespaces/inkscape"
   xmlns:sodipodi="http://sodipodi.sourceforge.net/DTD/sodipodi-0.dtd"
   xmlns="http://www.w3.org/2000/svg"
   xmlns:svg="http://www.w3.org/2000/svg">
  <defs
     id="defs2" />
  <sodipodi:namedview
     id="namedview2"
     pagecolor="#ffffff"
     bordercolor="#666666"
     borderopacity="1.0"
     inkscape:showpageshadow="2"
     inkscape:pageopacity="0.0"
     inkscape:pagecheckerboard="0"
     inkscape:deskcolor="#d1d1d1"
     inkscape:zoom="1"
     inkscape:cx="399.5"
     inkscape:cy="400"
     inkscape:window-width="1920"
     inkscape:window-height="1018"
     inkscape:window-x="0"
     inkscape:window-y="31"
     inkscape:window-maximized="1"
     inkscape:current-layer="svg2" />
  <path
     fill="none"
     d="M 0,0 H 24 V 24 H 0 Z"
     id="path1" />
  <path
     d="M 3,3 H 5 V 5 H 3 Z M 7,3 H 9 V 5 H 7 Z m 4,0 h 2 v 2 h -2 z m 4,0 h 2 v 2 h -2 z m 4,0 h 2 v 2 h -2 z m 0,4 h 2 V 9 H 19 Z M 3,19 h 2 v 2 H 3 Z m 0,-4 h 2 v 2 H 3 Z m 0,-4 h 2 v 2 H 3 Z M 3,7 H 5 V 9 H 3 Z m 7.667,4 1.036,-1.555 A 1,1 0 0 1 12.535,9 h 2.93 a 1,1 0 0 1 0.832,0.445 L 17.333,11 H 20 a 1,1 0 0 1 1,1 v 8 a 1,1 0 0 1 -1,1 H 8 A 1,1 0 0 1 7,20 V 12 A 1,1 0 0 1 8,11 Z M 9,19 H 19 V 13 H 16.263 L 14.93,11 h -1.86 l -1.333,2 H 9 Z m 5,-1 a 2,2 0 1 1 0,-4 2,2 0 0 1 0,4 z"
     id="path2"
     style="fill:#e6e6e6" />
</svg>
