<?xml version="1.0" encoding="UTF-8"?>
<svg width="256" height="256" version="1.1" viewBox="0 0 256 256" xmlns="http://www.w3.org/2000/svg">
 <defs>
  <style>.cls-1{fill:#231f20;}</style>
 </defs>
 <g transform="matrix(1.0481 0 0 1.0481 6.3968 19.914)" fill="#1a1a1a">
  <path class="cls-1" d="m98.982 171.7-63.16-41.698h-25.053v-60h25.053l63.16-40.759 10.884 3.69v135.08zm-78.626-51.698h17.989l60.425 39.31v-118.66l-60.425 39.35h-17.989z" stroke-width="1.1403"/>
  <path class="cls-1" d="m149.89 121.18c12.119-12.145 12.119-31.808 0-43.953l9.19-11.098c18.239 18.278 18.239 47.871 0 66.149z" stroke-width="1.5698"/>
  <path class="cls-1" d="m168.53 147.1c26.013-26.004 26.013-68.175 0-94.179l10.512-10.512c31.818 31.81 31.818 83.393 0 115.2z" stroke-width="1.4869"/>
  <path class="cls-1" d="m188.81 167.98c37.529-37.538 37.529-98.389 0-135.93l10.311-10.311c43.231 43.23 43.231 113.32 0 156.55z" stroke-width="1.4584"/>
 </g>
</svg>
