<svg width="256" height="256" version="1.1" viewBox="0 0 163.84 163.84" xml:space="preserve" xmlns="http://www.w3.org/2000/svg">
    <path d="m155.07 65.664h-10.255l-6.9278-16.725 7.2501-7.253v-11.496l-11.495-11.496h-11.493l-7.253 7.253-16.722-6.925v-10.255l-8.128-8.128h-16.256l-8.128 8.128v10.255l-16.725 6.9278-7.2501-7.253h-11.493l-11.496 11.496v11.496l7.253 7.253-6.9304 16.722h-10.255l-8.128 8.1277v16.256l8.128 8.128h10.255l6.9278 16.725-7.253 7.253v11.496l11.496 11.496h11.493l7.253-7.253 16.725 6.9278v10.252l8.128 8.128h16.256l8.128-8.128v-10.255l16.725-6.9278 7.253 7.253h11.493l11.493-11.496v-11.496l-7.2501-7.253 6.9278-16.725h10.255l8.128-8.128v-16.256zm0 24.384h-16.903l-10.729 25.898 11.951 11.951-11.496 11.496-11.951-11.951-25.898 10.729v16.901h-16.256v-16.903l-25.898-10.729-11.951 11.951-11.496-11.496 11.951-11.951-10.729-25.898h-16.898v-16.256h16.904l10.729-25.898-11.951-11.951 11.496-11.496 11.951 11.951 25.898-10.726v-16.901h16.256v16.904l25.898 10.726 11.951-11.951 11.496 11.496-11.951 11.951 10.729 25.898h16.898z" stroke-width=".6096" style="paint-order:stroke fill markers"/>
    
<circle cx="81.92" cy="81.92" r="21.034" fill="none" stroke="#000" stroke-dashoffset="9.5" stroke-linecap="square" stroke-width="8.32" style="paint-order:stroke fill markers"/></svg>
