<svg width="256" height="256" version="1.1" viewBox="0 0 256 256" xmlns="http://www.w3.org/2000/svg">
 <path d="m174.47 47.943c-3.1754 4.6165-7.4072 7.5921-11.811 9.4238l10.696 117.26c.15008 1.5971-1.297 3.3443-2.8941 3.4944l-3.1943.30016c-6.8417.57845-12.946-4.7128-13.74-11.792l-5.0152-56.115c-.12822-2.0503-1.8536-3.9506-3.882-4.2756l-29.714-5.5218c-2.2471 4.207-6.0694 8.1109-10.517 10.849-10.514 6.0795-23.872 5.2079-33.04-2.5024-14.625-12.289-13.272-35.618 3.374-46.398 9.8451-6.3389 22.772-5.9424 32.221.64589 6.5794 4.8599 10.352 11.401 11.168 18.028l22.054 4.2437c3.1505.60624 6.0009-1.9818 5.7008-5.176l-2.1011-22.36c-6.9481-1.9251-13.096-6.31-16.869-12.852-6.1013-10.061-4.7984-22.944 2.4587-32.133 12.333-15.531 35.683-14.632 46.508 1.108 6.0576 10.967 5.6392 24.348-1.4022 33.774zm-91.267 32.165c-4.038 3.6664-4.3222 9.5579-.65589 13.596 3.6664 4.038 9.5579 4.3223 13.596.6559s4.3222-9.5579.6559-13.596c-3.6664-4.038-9.558-4.3223-13.596-.6559zm61.758-56.074c-4.038 3.6664-4.3222 9.5579-.65589 13.596 3.6664 4.038 9.5579 4.3222 13.596.6559 4.038-3.6664 4.3222-9.5579.6559-13.596-3.9039-3.8224-9.7955-4.1066-13.596-.6559z" fill="#333"/>
 <path d="m173.99 0v257.1" fill="#f00" stroke="#d40000" stroke-dasharray="11.1054, 11.1054" stroke-width="11.105"/>
 <rect transform="rotate(-90)" x="-134.38" width="14.378" height="256" fill="#999"/>
 <rect width="24" height="256" fill="#333"/>
 <path d="m183.11 98.911c-.0332-2.0541 1.9449-3.6896 3.9562-3.271l41.247 9.6074c5.7865 1.4601 9.628 6.6098 9.7702 12.32l.4517.0429-.4517-.0429c.11879 1.1507-1.0512 6.281-1.0512 6.281-.37573 1.5595-2.311 2.7434-3.8705 2.3676l-45.678-10.939c-2.0112-.41855-3.6468-2.3966-3.6799-4.4507z" fill="#333"/>
</svg>
